# xmcd CD database file
#
# Track frame offsets:
#	150
#	7360
#	13677
#	17596
#	26502
#	38656
#	47262
#	61907
#	69056
#	75858
#	88423
#	105450
#	113080
#	120991
#
# Disc length: 1771 seconds
#
# Revision: 0
# Processed by: cddbd v1.5.2PL0 Copyright (c) Steve Scherf et al.
# Submitted via: CDex 1.70beta2
#
DISCID=9706e90e
DTITLE=Will Ryan - Elmo Aardvark Classic Cartoon Soundtracks
DYEAR=1995
DGENRE=Jazz
TTITLE0=Elmo Aardvark - The Cinema's Favorite Star
TTITLE1=Elmo Aardvark - The Cinema's Favorite Star
TTITLE2=The Snappytoon Song
TTITLE3=Have a lLot of Fun!
TTITLE4=Dinah's Back in Dixie!
TTITLE5=Play Me A Ukulele Tune
TTITLE6=The Moonlight, a Tuba and You
TTITLE7=Them Birds, Them Bees
TTITLE8=Elmo Aardvark - The Cinema's Favorite Star
TTITLE9=Whistle Away Your Troubles
TTITLE10=Music for a Royal Occasion
TTITLE11=The Sidekick Song
TTITLE12=International Elmo Aardvark Day
TTITLE13=Something About That Aardvark
EXTD=YEAR: 1995
EXTT0=
EXTT1=
EXTT2=
EXTT3=
EXTT4=
EXTT5=
EXTT6=
EXTT7=
EXTT8=
EXTT9=
EXTT10=
EXTT11=
EXTT12=
EXTT13=
PLAYORDER=
